<?xml version="1.0" encoding="UTF-8" standalone="no"?><!DOCTYPE svg PUBLIC "-//W3C//DTD SVG 1.1//EN" "http://www.w3.org/Graphics/SVG/1.1/DTD/svg11.dtd"><svg width="100%" height="100%" viewBox="0 0 2626 901" version="1.1" xmlns="http://www.w3.org/2000/svg" xmlns:xlink="http://www.w3.org/1999/xlink" xml:space="preserve" xmlns:serif="http://www.serif.com/" style="fill-rule:evenodd;clip-rule:evenodd;stroke-linejoin:round;stroke-miterlimit:2;"><rect id="Brand---Logotyp---horizontal---repman_002" serif:id="Brand / Logotyp / horizontal / repman_002" x="0" y="0.009" width="2626" height="900" style="fill:none;"/><path d="M414.479,751.96l-264.55,-152.75l0,-305.5l264.55,-152.75l264.55,152.75l0,305.5l-264.55,152.75Z" style="fill:#0050e6;"/><path d="M426.142,358.648l0,-79.796l153.863,88.84l0,79.642l-153.863,-88.686Z" style="fill:#fff;"/><path d="M418.091,358.648l0,-79.796l-153.863,88.84l0,79.642l153.863,-88.686Z" style="fill:#fff;"/><path d="M580.005,536.328l0,-79.796l-153.863,88.84l0,79.642l153.863,-88.686Z" style="fill:#fff;"/><path d="M264.228,536.328l0,-79.796l153.863,88.84l0,79.642l-153.863,-88.686Z" style="fill:#fff;"/><path d="M426.142,456.585l0,79.796l153.863,-88.84l0,-79.642l-153.863,88.686Z" style="fill:#fff;"/><path d="M418.091,456.585l0,79.796l-153.863,-88.84l0,-79.642l153.863,88.686Z" style="fill:#fff;"/><g><path d="M894.492,331.675l0,87.218l85.701,0c18.388,0 31.358,-4.107 38.91,-12.319c7.552,-8.213 11.328,-18.56 11.328,-31.044c0,-12.811 -3.694,-23.323 -11.082,-31.536c-7.388,-8.212 -19.619,-12.319 -36.694,-12.319l-88.163,0Zm124.118,270.522l0,-84.261c0,-15.768 -3.612,-27.019 -10.836,-33.753c-7.223,-6.735 -20.686,-10.102 -40.387,-10.102l-72.895,0l0,128.116l-66.492,0l0,-327.188l165.984,0c15.104,0 28.813,2.381 41.126,7.145c12.313,4.763 22.903,11.333 31.768,19.71c8.866,8.377 15.679,18.396 20.441,30.058c4.761,11.662 7.141,24.227 7.141,37.695c0,17.74 -4.186,33.426 -12.559,47.058c-8.373,13.633 -20.44,23.242 -36.201,28.826c14.447,4.599 24.708,11.662 30.783,21.189c6.074,9.526 9.112,23.816 9.112,42.869l0,92.638l-66.985,0Z" style="fill-rule:nonzero;"/><path d="M1281.13,457.328c-0.328,-8.87 -1.888,-16.672 -4.679,-23.406c-2.791,-6.735 -6.485,-12.319 -11.082,-16.754c-4.597,-4.435 -9.85,-7.72 -15.761,-9.855c-5.91,-2.135 -11.985,-3.203 -18.224,-3.203c-12.805,0 -23.887,4.681 -33.246,14.044c-9.358,9.362 -14.693,22.42 -16.007,39.174l98.999,0Zm-100.969,40.405c0.985,18.396 6.321,33.015 16.007,43.855c9.687,10.841 22.411,16.261 38.172,16.261c10.507,0 19.783,-2.381 27.828,-7.145c8.044,-4.763 13.216,-11.415 15.514,-19.956l66,0c-7.552,24.966 -20.686,44.183 -39.403,57.652c-18.716,13.469 -41.044,20.203 -66.984,20.203c-80.776,0 -121.163,-44.019 -121.163,-132.058c0,-18.725 2.627,-35.643 7.88,-50.754c5.254,-15.111 12.888,-28.087 22.903,-38.927c10.015,-10.841 22.246,-19.135 36.694,-24.884c14.447,-5.749 31.029,-8.623 49.746,-8.623c37.432,0 65.753,11.99 84.961,35.971c19.209,23.98 28.814,60.115 28.814,108.405l-166.969,0Z" style="fill-rule:nonzero;"/><path d="M1486.02,553.907c36.776,0 55.164,-24.966 55.164,-74.898c0,-21.681 -5.09,-39.338 -15.269,-52.971c-10.179,-13.633 -23.313,-20.45 -39.403,-20.45c-15.432,0 -28.32,6.406 -38.663,19.218c-10.344,12.811 -15.515,29.565 -15.515,50.261c0,52.56 17.895,78.84 53.686,78.84Zm-114.268,163.102l0,-357.247l61.567,0l0.492,29.566c14.776,-23.981 37.269,-35.971 67.477,-35.971c15.105,0 29.142,2.956 42.112,8.869c12.97,5.913 24.052,14.454 33.246,25.623c9.194,11.169 16.418,24.802 21.671,40.899c5.254,16.096 7.881,34.328 7.881,54.695c0,18.397 -2.216,35.232 -6.649,50.508c-4.433,15.275 -10.918,28.497 -19.455,39.666c-8.538,11.169 -18.963,19.793 -31.276,25.87c-12.313,6.077 -26.351,9.116 -42.112,9.116c-29.88,0 -53.85,-12.647 -71.91,-37.942l0,146.348l-63.044,0Z" style="fill-rule:nonzero;"/><path d="M1920.93,602.197l0,-146.84c0,-14.783 -3.447,-26.773 -10.343,-35.971c-6.895,-9.199 -16.089,-13.798 -27.582,-13.798c-11.82,0 -21.589,4.928 -29.305,14.783c-7.717,9.855 -11.575,22.174 -11.575,36.957l0,144.869l-64.029,0l0,-145.855c0,-9.855 -0.657,-17.903 -1.97,-24.145c-1.314,-6.241 -3.53,-11.169 -6.649,-14.782c-3.12,-3.614 -7.142,-6.16 -12.068,-7.638c-4.925,-1.478 -10.835,-2.218 -17.731,-2.218c-25.94,0 -38.91,15.769 -38.91,47.305l0,147.333l-64.029,0l0,-242.435l60.089,0l0,35.479c8.209,-16.097 18.059,-27.102 29.552,-33.015c11.492,-5.913 25.283,-8.869 41.373,-8.869c8.209,0 15.514,0.657 21.917,1.971c6.403,1.314 12.15,3.531 17.239,6.652c5.09,3.12 9.933,7.145 14.53,12.072c4.597,4.928 9.194,10.841 13.791,17.739c6.567,-13.468 15.268,-23.241 26.104,-29.319c10.836,-6.077 23.97,-9.115 39.403,-9.115c12.149,0 23.313,2.053 33.492,6.159c10.179,4.106 18.88,9.855 26.104,17.246c7.224,7.392 12.888,16.015 16.992,25.87c4.105,9.855 6.157,20.367 6.157,31.536l0,168.029l-62.552,0Z" style="fill-rule:nonzero;"/><path d="M2162.76,483.443c-3.284,3.286 -8.045,5.914 -14.283,7.885c-6.239,1.971 -15.269,4.106 -27.09,6.405c-18.388,3.614 -31.029,8.213 -37.925,13.797c-6.895,5.585 -10.343,13.633 -10.343,24.145c0,18.068 10.343,27.102 31.03,27.102c8.209,0 15.843,-1.396 22.902,-4.189c7.06,-2.792 13.135,-6.57 18.224,-11.333c5.09,-4.763 9.194,-10.348 12.313,-16.754c3.12,-6.405 4.68,-13.222 4.68,-20.449l0.492,-26.609Zm4.433,118.754c-1.97,-6.241 -3.284,-13.468 -3.94,-21.681c-7.553,8.541 -17.567,15.357 -30.045,20.449c-12.477,5.092 -26.925,7.638 -43.343,7.638c-27.91,0 -48.35,-6.16 -61.32,-18.478c-12.97,-12.319 -19.455,-28.334 -19.455,-48.044c0,-17.41 2.791,-31.29 8.373,-41.638c5.582,-10.347 13.298,-18.478 23.149,-24.391c9.851,-5.913 21.589,-10.266 35.216,-13.058c13.627,-2.792 28.485,-5.338 44.574,-7.637c16.09,-2.3 26.925,-5.339 32.507,-9.116c5.582,-3.778 8.373,-9.938 8.373,-18.479c0,-7.884 -3.694,-14.043 -11.082,-18.478c-7.388,-4.435 -17.32,-6.652 -29.798,-6.652c-14.776,0 -25.365,3.285 -31.768,9.855c-6.403,6.57 -10.425,15.275 -12.067,26.116l-59.597,0c0.329,-12.483 2.381,-23.981 6.157,-34.493c3.776,-10.512 9.851,-19.546 18.224,-27.101c8.373,-7.556 19.291,-13.387 32.753,-17.493c13.463,-4.106 29.88,-6.159 49.253,-6.159c19.045,0 35.217,2.135 48.515,6.405c13.298,4.271 23.97,10.43 32.015,18.479c8.044,8.048 13.873,18.067 17.484,30.058c3.612,11.99 5.418,25.541 5.418,40.652l0,153.246l-59.596,0Z" style="fill-rule:nonzero;"/><path d="M2412.48,602.197l0,-146.84c0,-18.725 -3.119,-31.372 -9.358,-37.942c-6.239,-6.571 -16.91,-9.856 -32.015,-9.856c-33.163,0 -49.745,18.561 -49.745,55.682l0,138.956l-64.03,0l0,-242.435l61.074,0l0,35.479c7.553,-13.798 17.567,-24.227 30.045,-31.29c12.477,-7.063 28.567,-10.594 48.268,-10.594c11.493,0 22.164,1.724 32.015,5.173c9.85,3.45 18.306,8.624 25.365,15.522c7.06,6.899 12.642,15.358 16.746,25.377c4.105,10.019 6.157,21.599 6.157,34.739l0,168.029l-64.522,0Z" style="fill-rule:nonzero;"/></g></svg>