<?xml version="1.0" encoding="UTF-8" standalone="no"?><!DOCTYPE svg PUBLIC "-//W3C//DTD SVG 1.1//EN" "http://www.w3.org/Graphics/SVG/1.1/DTD/svg11.dtd"><svg width="100%" height="100%" viewBox="0 0 2110 2097" version="1.1" xmlns="http://www.w3.org/2000/svg" xmlns:xlink="http://www.w3.org/1999/xlink" xml:space="preserve" xmlns:serif="http://www.serif.com/" style="fill-rule:evenodd;clip-rule:evenodd;stroke-linejoin:round;stroke-miterlimit:2;"><rect id="Brand---Logotyp---vertical---repman_001" serif:id="Brand / Logotyp / vertical / repman_001" x="0" y="0" width="2110" height="2097" style="fill:none;"/><g><g><path d="M1052.5,1390l-539.967,-312l0,-624l539.967,-312l539.967,312l0,624l-539.967,312Z" style="fill:#0050e6;"/><g><g><g><path d="M1058.95,574.924l0,-162.924l314.047,181.39l0,162.61l-314.047,-181.076Z" style="fill:#fff;"/><path d="M1373,937.924l0,-162.924l-314.047,181.39l0,162.61l314.047,-181.076Z" style="fill:#fff;"/><path d="M1059,775.076l0,162.924l314.047,-181.39l0,-162.61l-314.047,181.076Z" style="fill:#fff;"/></g></g><g><g><path d="M1045,574.924l0,-162.924l-314.047,181.39l0,162.61l314.047,-181.076Z" style="fill:#fff;"/><path d="M730.953,937.924l0,-162.924l314.047,181.39l0,162.61l-314.047,-181.076Z" style="fill:#fff;"/><path d="M1045.05,775.146l0,162.988l-314.047,-181.46l0,-162.674l314.047,181.146Z" style="fill:#fff;"/></g></g></g></g><g><path d="M296.992,1590.04l0,87.217l85.701,0c18.388,0 31.358,-4.106 38.91,-12.319c7.552,-8.212 11.328,-18.56 11.328,-31.043c0,-12.812 -3.694,-23.324 -11.082,-31.536c-7.388,-8.213 -19.619,-12.319 -36.694,-12.319l-88.163,0Zm124.118,270.522l0,-84.261c0,-15.768 -3.612,-27.02 -10.836,-33.754c-7.223,-6.734 -20.686,-10.101 -40.387,-10.101l-72.895,0l0,128.116l-66.492,0l0,-327.189l165.984,0c15.104,0 28.813,2.382 41.126,7.145c12.313,4.763 22.903,11.333 31.768,19.71c8.866,8.377 15.679,18.396 20.441,30.058c4.761,11.662 7.141,24.227 7.141,37.696c0,17.739 -4.186,33.425 -12.559,47.058c-8.373,13.633 -20.44,23.241 -36.201,28.826c14.447,4.599 24.708,11.662 30.783,21.188c6.074,9.527 9.112,23.817 9.112,42.87l0,92.638l-66.985,0Z" style="fill-rule:nonzero;"/><path d="M683.63,1715.69c-0.328,-8.87 -1.888,-16.671 -4.679,-23.406c-2.791,-6.734 -6.485,-12.319 -11.082,-16.753c-4.597,-4.435 -9.85,-7.72 -15.761,-9.855c-5.91,-2.136 -11.985,-3.203 -18.224,-3.203c-12.805,0 -23.887,4.681 -33.246,14.043c-9.358,9.362 -14.693,22.42 -16.007,39.174l98.999,0Zm-100.969,40.406c0.985,18.396 6.321,33.014 16.007,43.855c9.687,10.84 22.411,16.261 38.172,16.261c10.507,0 19.783,-2.382 27.828,-7.145c8.044,-4.763 13.216,-11.416 15.514,-19.957l66,0c-7.552,24.966 -20.686,44.184 -39.403,57.652c-18.716,13.469 -41.044,20.203 -66.984,20.203c-80.776,0 -121.163,-44.019 -121.163,-132.058c0,-18.724 2.627,-35.642 7.88,-50.753c5.254,-15.111 12.888,-28.087 22.903,-38.928c10.015,-10.84 22.246,-19.135 36.694,-24.884c14.447,-5.749 31.029,-8.623 49.746,-8.623c37.432,0 65.753,11.99 84.961,35.971c19.209,23.981 28.814,60.116 28.814,108.406l-166.969,0Z" style="fill-rule:nonzero;"/><path d="M888.524,1812.27c36.776,0 55.164,-24.966 55.164,-74.899c0,-21.681 -5.09,-39.338 -15.269,-52.971c-10.179,-13.633 -23.313,-20.449 -39.403,-20.449c-15.432,0 -28.32,6.406 -38.663,19.217c-10.344,12.812 -15.515,29.565 -15.515,50.261c0,52.561 17.895,78.841 53.686,78.841Zm-114.268,163.101l0,-357.246l61.567,0l0.492,29.565c14.776,-23.981 37.269,-35.971 67.477,-35.971c15.105,0 29.142,2.957 42.112,8.87c12.97,5.913 24.052,14.454 33.246,25.623c9.194,11.169 16.418,24.802 21.671,40.898c5.254,16.097 7.881,34.329 7.881,54.696c0,18.396 -2.216,35.232 -6.649,50.507c-4.433,15.276 -10.918,28.498 -19.455,39.667c-8.538,11.169 -18.963,19.792 -31.276,25.869c-12.313,6.078 -26.351,9.116 -42.112,9.116c-29.88,0 -53.85,-12.647 -71.91,-37.942l0,146.348l-63.044,0Z" style="fill-rule:nonzero;"/><path d="M1323.43,1860.56l0,-146.841c0,-14.783 -3.447,-26.773 -10.343,-35.971c-6.895,-9.198 -16.089,-13.797 -27.582,-13.797c-11.82,0 -21.589,4.927 -29.305,14.782c-7.717,9.856 -11.575,22.174 -11.575,36.957l0,144.87l-64.029,0l0,-145.856c0,-9.855 -0.657,-17.903 -1.97,-24.144c-1.314,-6.242 -3.53,-11.17 -6.649,-14.783c-3.12,-3.614 -7.142,-6.159 -12.068,-7.638c-4.925,-1.478 -10.835,-2.217 -17.731,-2.217c-25.94,0 -38.91,15.768 -38.91,47.304l0,147.334l-64.029,0l0,-242.435l60.089,0l0,35.478c8.209,-16.097 18.059,-27.101 29.552,-33.014c11.492,-5.913 25.283,-8.87 41.373,-8.87c8.209,0 15.514,0.657 21.917,1.971c6.403,1.314 12.15,3.531 17.239,6.652c5.09,3.121 9.933,7.145 14.53,12.073c4.597,4.927 9.194,10.84 13.791,17.739c6.567,-13.469 15.268,-23.242 26.104,-29.319c10.836,-6.077 23.97,-9.116 39.403,-9.116c12.149,0 23.313,2.053 33.492,6.159c10.179,4.107 18.88,9.855 26.104,17.247c7.224,7.391 12.888,16.014 16.992,25.869c4.105,9.855 6.157,20.368 6.157,31.537l0,168.029l-62.552,0Z" style="fill-rule:nonzero;"/><path d="M1565.26,1741.8c-3.284,3.285 -8.045,5.913 -14.283,7.884c-6.239,1.971 -15.269,4.106 -27.09,6.406c-18.388,3.613 -31.029,8.212 -37.925,13.797c-6.895,5.584 -10.343,13.633 -10.343,24.145c0,18.067 10.343,27.101 31.03,27.101c8.209,0 15.843,-1.396 22.902,-4.188c7.06,-2.792 13.135,-6.57 18.224,-11.333c5.09,-4.764 9.194,-10.348 12.313,-16.754c3.12,-6.406 4.68,-13.222 4.68,-20.449l0.492,-26.609Zm4.433,118.754c-1.97,-6.242 -3.284,-13.469 -3.94,-21.682c-7.553,8.541 -17.567,15.358 -30.045,20.45c-12.477,5.091 -26.925,7.637 -43.343,7.637c-27.91,0 -48.35,-6.159 -61.32,-18.478c-12.97,-12.319 -19.455,-28.333 -19.455,-48.043c0,-17.411 2.791,-31.29 8.373,-41.638c5.582,-10.348 13.298,-18.478 23.149,-24.391c9.851,-5.913 21.589,-10.266 35.216,-13.058c13.627,-2.793 28.485,-5.338 44.574,-7.638c16.09,-2.3 26.925,-5.338 32.507,-9.116c5.582,-3.778 8.373,-9.937 8.373,-18.478c0,-7.884 -3.694,-14.044 -11.082,-18.478c-7.388,-4.435 -17.32,-6.653 -29.798,-6.653c-14.776,0 -25.365,3.285 -31.768,9.855c-6.403,6.57 -10.425,15.276 -12.067,26.116l-59.597,0c0.329,-12.483 2.381,-23.98 6.157,-34.492c3.776,-10.512 9.851,-19.546 18.224,-27.102c8.373,-7.555 19.291,-13.386 32.753,-17.493c13.463,-4.106 29.88,-6.159 49.253,-6.159c19.045,0 35.217,2.135 48.515,6.406c13.298,4.27 23.97,10.43 32.015,18.478c8.044,8.048 13.873,18.068 17.484,30.058c3.612,11.99 5.418,25.541 5.418,40.652l0,153.247l-59.596,0Z" style="fill-rule:nonzero;"/><path d="M1814.98,1860.56l0,-146.841c0,-18.725 -3.119,-31.372 -9.358,-37.942c-6.239,-6.57 -16.91,-9.855 -32.015,-9.855c-33.163,0 -49.745,18.56 -49.745,55.681l0,138.957l-64.03,0l0,-242.435l61.074,0l0,35.478c7.553,-13.797 17.567,-24.227 30.045,-31.29c12.477,-7.063 28.567,-10.594 48.268,-10.594c11.493,0 22.164,1.725 32.015,5.174c9.85,3.449 18.306,8.623 25.365,15.522c7.06,6.898 12.642,15.357 16.746,25.376c4.105,10.02 6.157,21.599 6.157,34.74l0,168.029l-64.522,0Z" style="fill-rule:nonzero;"/></g></g></svg>